<mxfile host="app.diagrams.net" modified="2021-12-03T12:43:23.285Z" agent="5.0 (X11)" etag="Tf1PNKaCcU7JaEpzS6RB" version="15.8.2" type="github">
  <diagram id="4--m4Km5jCpsTV1IGMaW" name="Page-1">
    <mxGraphModel dx="1590" dy="720" grid="1" gridSize="10" guides="1" tooltips="1" connect="1" arrows="1" fold="1" page="1" pageScale="1" pageWidth="850" pageHeight="1100" math="0" shadow="0">
      <root>
        <mxCell id="0" />
        <mxCell id="1" parent="0" />
        <mxCell id="gAfc1uIG-7i2aHRbjNRq-1" value="&lt;div&gt;backend&lt;/div&gt;" style="rounded=0;whiteSpace=wrap;html=1;" vertex="1" parent="1">
          <mxGeometry x="360" y="340" width="120" height="60" as="geometry" />
        </mxCell>
        <mxCell id="gAfc1uIG-7i2aHRbjNRq-2" value="&lt;div&gt;frontend&lt;/div&gt;" style="rounded=0;whiteSpace=wrap;html=1;" vertex="1" parent="1">
          <mxGeometry x="360" y="140" width="120" height="60" as="geometry" />
        </mxCell>
        <mxCell id="gAfc1uIG-7i2aHRbjNRq-3" value="db" style="rounded=0;whiteSpace=wrap;html=1;" vertex="1" parent="1">
          <mxGeometry x="360" y="440" width="120" height="60" as="geometry" />
        </mxCell>
      </root>
    </mxGraphModel>
  </diagram>
</mxfile>
